<?xml version="1.0" encoding="UTF-8" standalone="no"?>
<!DOCTYPE svg PUBLIC "-//W3C//DTD SVG 1.1//EN" "http://www.w3.org/Graphics/SVG/1.1/DTD/svg11.dtd">
<svg width="100%" height="100%" viewBox="0 0 2084 2084" version="1.1" xmlns="http://www.w3.org/2000/svg" xmlns:xlink="http://www.w3.org/1999/xlink" xml:space="preserve" xmlns:serif="http://www.serif.com/" style="fill-rule:evenodd;clip-rule:evenodd;stroke-linejoin:round;stroke-miterlimit:2;">
    <g transform="matrix(4.16667,0,0,4.16667,-3,29)">
        <g id="Background-Complete" serif:id="Background Complete">
            <g>
                <g transform="matrix(1,0,0,1,0,265.047)">
                    <rect x="0" y="117.352" width="500" height="0.249" style="fill:rgb(236,236,236);"/>
                </g>
                <g transform="matrix(1,0,0,1,0,297.239)">
                    <rect x="428.222" y="101.256" width="21.679" height="0.249" style="fill:rgb(236,236,236);"/>
                </g>
                <g transform="matrix(1,0,0,1,0,286.862)">
                    <rect x="310.558" y="106.444" width="34.109" height="0.25" style="fill:rgb(236,236,236);"/>
                </g>
                <g transform="matrix(1,0,0,1,0,278.666)">
                    <rect x="396.586" y="110.542" width="44.525" height="0.25" style="fill:rgb(236,236,236);"/>
                </g>
                <g transform="matrix(1,0,0,1,0,288.75)">
                    <rect x="161.877" y="105.5" width="11.137" height="0.25" style="fill:rgb(236,236,236);"/>
                </g>
                <g transform="matrix(1,0,0,1,0,288.75)">
                    <rect x="114.584" y="105.5" width="38.389" height="0.25" style="fill:rgb(236,236,236);"/>
                </g>
                <g transform="matrix(1,0,0,1,0,280.304)">
                    <rect x="66.307" y="109.723" width="27.696" height="0.25" style="fill:rgb(236,236,236);"/>
                </g>
                <g transform="matrix(1,0,0,1,43.915,337.55)">
                    <path d="M0,-282.348C-3.01,-282.348 -5.458,-279.899 -5.458,-276.89L-5.458,-5.458C-5.458,-2.449 -3.01,0 0,0L193.099,0C196.107,0 198.556,-2.449 198.556,-5.458L198.556,-276.89C198.556,-279.899 196.107,-282.348 193.099,-282.348L0,-282.348ZM193.099,0.25L0,0.25C-3.147,0.25 -5.708,-2.311 -5.708,-5.458L-5.708,-276.89C-5.708,-280.036 -3.147,-282.598 0,-282.598L193.099,-282.598C196.245,-282.598 198.806,-280.036 198.806,-276.89L198.806,-5.458C198.806,-2.311 196.245,0.25 193.099,0.25" style="fill:rgb(236,236,236);fill-rule:nonzero;"/>
                </g>
                <g transform="matrix(1,0,0,1,260.212,337.55)">
                    <path d="M0,-282.348C-3.009,-282.348 -5.457,-279.899 -5.457,-276.89L-5.457,-5.458C-5.457,-2.449 -3.009,0 0,0L193.099,0C196.108,0 198.557,-2.449 198.557,-5.458L198.557,-276.89C198.557,-279.899 196.108,-282.348 193.099,-282.348L0,-282.348ZM193.099,0.25L0,0.25C-3.146,0.25 -5.707,-2.311 -5.707,-5.458L-5.707,-276.89C-5.707,-280.036 -3.146,-282.598 0,-282.598L193.099,-282.598C196.246,-282.598 198.807,-280.036 198.807,-276.89L198.807,-5.458C198.807,-2.311 196.246,0.25 193.099,0.25" style="fill:rgb(236,236,236);fill-rule:nonzero;"/>
                </g>
                <g transform="matrix(1,0,0,1,127.276,139.189)">
                    <path d="M0,104.26C-28.778,103.274 -51.313,79.14 -50.327,50.361C-49.34,21.548 -25.206,-0.985 3.572,-0C32.351,0.987 54.885,25.118 53.898,53.932C52.912,82.711 28.778,105.246 0,104.26M88.796,61.689L89.247,48.548L81.179,45.912C80.847,41.422 80.097,36.989 79.028,32.716L85.866,27.674L81.221,15.331L72.762,16.012C70.747,12.021 68.377,8.225 65.722,4.662L70.104,-2.65L61.095,-12.261L53.533,-8.389C50.127,-11.284 46.537,-13.906 42.694,-16.224L43.919,-24.618L31.921,-30.063L26.424,-23.621C22.236,-24.979 17.896,-25.996 13.407,-26.67L11.363,-34.898L-1.813,-35.349L-4.415,-27.281C-8.94,-26.916 -13.338,-26.198 -17.61,-25.13L-22.688,-31.934L-35.03,-27.323L-34.348,-18.863C-38.34,-16.814 -42.136,-14.445 -45.698,-11.79L-52.977,-16.17L-62.622,-7.198L-58.751,0.398C-61.644,3.77 -64.267,7.396 -66.552,11.239L-74.944,9.981L-80.423,21.976L-73.946,27.475C-75.304,31.663 -76.357,36.036 -76.996,40.492L-85.26,42.569L-85.71,55.71L-77.608,58.349C-77.277,62.872 -76.524,67.273 -75.456,71.543L-82.293,76.585L-77.648,88.93L-69.19,88.246C-67.174,92.238 -64.805,96.034 -62.15,99.597L-66.532,106.909L-57.523,116.522L-49.962,112.649C-46.59,115.542 -42.965,118.166 -39.122,120.485L-40.382,128.875L-28.384,134.321L-22.852,127.879C-18.664,129.239 -14.325,130.255 -9.835,130.929L-7.792,139.156L5.384,139.609L7.987,131.539C12.511,131.174 16.91,130.457 21.181,129.388L26.225,136.192L38.567,131.58L37.919,123.124C41.913,121.074 45.674,118.703 49.27,116.048L56.549,120.43L66.194,111.457L62.323,103.862C65.216,100.489 67.84,96.864 70.124,93.02L78.516,94.28L83.995,82.282L77.518,76.784C78.876,72.597 79.928,68.258 80.567,63.768L88.796,61.689Z" style="fill:rgb(236,236,236);fill-rule:nonzero;"/>
                </g>
                <g transform="matrix(1,0,0,1,417.341,129.458)">
                    <path d="M0,8.834C-2.438,6.223 -2.298,2.129 0.313,-0.31C2.928,-2.751 7.022,-2.61 9.46,0.001C11.898,2.612 11.758,6.706 9.144,9.147C6.532,11.586 2.438,11.445 0,8.834M23.616,27.965L26.93,24.87L25.606,22.261C26.62,21.085 27.518,19.82 28.299,18.519L31.196,18.956L33.073,14.813L30.844,12.918C31.326,11.453 31.674,9.949 31.895,8.433L34.747,7.719L34.894,3.178L32.106,2.278C31.981,0.742 31.745,-0.772 31.373,-2.275L33.719,-4.023L32.121,-8.276L29.209,-8.046C28.519,-9.398 27.709,-10.705 26.779,-11.964L28.287,-14.469L25.184,-17.792L22.582,-16.458C21.389,-17.473 20.142,-18.37 18.84,-19.151L19.261,-22.049L15.127,-23.935L13.23,-21.705C11.757,-22.179 10.254,-22.526 8.738,-22.748L8.031,-25.591L3.491,-25.755L2.583,-22.959C1.055,-22.842 -0.468,-22.598 -1.963,-22.218L-3.702,-24.57L-7.963,-22.981L-7.725,-20.062C-9.077,-19.371 -10.4,-18.562 -11.643,-17.631L-14.164,-19.14L-17.478,-16.045L-16.146,-13.426C-17.168,-12.242 -18.058,-10.985 -18.839,-9.684L-21.735,-10.122L-23.613,-5.979L-21.384,-4.083C-21.865,-2.618 -22.214,-1.114 -22.435,0.401L-25.286,1.116L-25.434,5.657L-22.645,6.556C-22.529,8.084 -22.285,9.607 -21.913,11.11L-24.266,12.849L-22.668,17.103L-19.749,16.881C-19.059,18.233 -18.249,19.539 -17.318,20.798L-18.826,23.303L-15.724,26.626L-13.121,25.293C-11.929,26.307 -10.682,27.205 -9.379,27.985L-9.809,30.874L-5.675,32.76L-3.771,30.54C-2.297,31.014 -0.802,31.353 0.723,31.582L1.429,34.426L5.969,34.589L6.877,31.793C8.405,31.677 9.929,31.433 11.423,31.052L13.162,33.405L17.424,31.816L17.185,28.896C18.537,28.206 19.852,27.404 21.103,26.466L23.616,27.965Z" style="fill:rgb(236,236,236);fill-rule:nonzero;"/>
                </g>
                <g transform="matrix(1,0,0,1,251.537,276.307)">
                    <path d="M0,49.419C-13.654,48.951 -24.32,37.488 -23.854,23.873C-23.386,10.219 -11.962,-0.448 1.692,0.02C15.347,0.487 26.014,11.911 25.546,25.565C25.08,39.181 13.654,49.887 0,49.419M68.452,16.029L58.111,8.888C58.108,8.881 58.108,8.871 58.105,8.863C57.083,5.106 55.671,1.49 53.946,-1.908L56.595,-12.306L41.596,-28.371L31.037,-26.437C27.768,-28.389 24.258,-30.043 20.583,-31.32C20.575,-31.322 20.565,-31.324 20.557,-31.328L14.137,-42.138L-7.827,-42.891L-14.969,-32.55C-14.982,-32.546 -14.997,-32.543 -15.01,-32.539C-18.763,-31.517 -22.375,-30.108 -25.77,-28.386L-36.163,-31.035L-52.227,-16.034L-50.298,-5.497C-50.3,-5.493 -50.302,-5.491 -50.304,-5.487C-52.296,-2.181 -53.911,1.33 -55.188,5.006L-65.996,11.423L-66.749,33.389L-56.398,40.536C-55.377,44.319 -54.009,47.927 -52.251,51.355C-52.25,51.356 -52.25,51.356 -52.25,51.358L-54.891,61.725L-39.892,77.787L-29.398,75.867C-26.086,77.825 -22.573,79.481 -18.852,80.76C-18.85,80.762 -18.847,80.763 -18.843,80.763L-12.434,91.557L9.531,92.31L16.667,81.976C20.465,80.954 24.083,79.544 27.519,77.817C27.52,77.817 27.521,77.817 27.522,77.815L37.867,80.451L53.931,65.453L52.002,54.913C53.994,51.607 55.61,48.094 56.887,44.418C56.887,44.418 56.887,44.416 56.888,44.416L67.7,37.995L68.452,16.029Z" style="fill:rgb(236,236,236);fill-rule:nonzero;"/>
                </g>
                <g transform="matrix(1,0,0,1,336.69,201.928)">
                    <path d="M0,-54.808C-14.698,-54.808 -26.9,-43.113 -27.407,-28.312C-27.925,-13.194 -16.047,-0.473 -0.928,0.046C6.397,0.291 13.383,-2.323 18.74,-7.331C24.093,-12.335 27.179,-19.12 27.43,-26.433C27.947,-41.551 16.069,-54.273 0.951,-54.791C0.633,-54.802 0.315,-54.808 0,-54.808M0.038,4.286C-0.332,4.286 -0.701,4.279 -1.073,4.266C-18.519,3.669 -32.226,-11.011 -31.628,-28.456C-31.03,-45.902 -16.327,-59.605 1.095,-59.012C18.541,-58.414 32.248,-43.735 31.65,-26.288C31.361,-17.848 27.8,-10.02 21.624,-4.246C15.713,1.279 8.084,4.286 0.038,4.286M15.551,-71.561L15.561,-71.561L15.551,-71.561ZM-9.232,23.251L5.777,23.765L10.748,16.567C11.032,16.156 11.453,15.858 11.937,15.728C14.701,14.985 17.445,13.933 20.091,12.602C20.096,12.6 20.101,12.598 20.105,12.595C20.546,12.379 21.06,12.311 21.563,12.442L28.602,14.235L39.578,3.986L38.265,-3.188C38.172,-3.694 38.268,-4.216 38.533,-4.658C39.981,-7.061 41.209,-9.697 42.184,-12.492C42.344,-12.988 42.683,-13.405 43.125,-13.664L50.647,-18.132L51.162,-33.142L43.958,-38.117C43.582,-38.376 43.3,-38.752 43.155,-39.186C43.137,-39.24 43.121,-39.297 43.106,-39.355C42.353,-42.113 41.306,-44.823 39.992,-47.41C39.76,-47.867 39.703,-48.391 39.829,-48.887L41.633,-55.965L31.383,-66.944L24.194,-65.627C23.69,-65.535 23.171,-65.629 22.732,-65.891C20.232,-67.383 17.592,-68.616 14.886,-69.557C14.733,-69.61 14.578,-69.681 14.445,-69.762C14.153,-69.942 13.91,-70.189 13.736,-70.483L9.264,-78.012L-5.746,-78.527L-10.72,-71.323C-11.016,-70.894 -11.459,-70.591 -11.963,-70.47C-14.74,-69.709 -17.441,-68.665 -20.017,-67.358C-20.474,-67.126 -21,-67.068 -21.494,-67.195L-28.569,-68.998L-39.546,-58.747L-38.233,-51.575C-38.151,-51.124 -38.217,-50.66 -38.422,-50.25C-38.451,-50.193 -38.482,-50.136 -38.517,-50.08C-39.968,-47.668 -41.198,-45.025 -42.171,-42.221C-42.335,-41.751 -42.66,-41.353 -43.088,-41.099L-50.616,-36.628L-51.13,-21.62L-43.92,-16.64C-43.509,-16.357 -43.212,-15.936 -43.082,-15.454C-42.305,-12.578 -41.258,-9.847 -39.972,-7.336C-39.897,-7.193 -39.84,-7.04 -39.801,-6.882C-39.716,-6.543 -39.716,-6.188 -39.803,-5.849L-41.601,1.205L-31.351,12.18L-24.213,10.875C-23.711,10.784 -23.195,10.877 -22.758,11.134C-20.213,12.639 -17.56,13.872 -14.871,14.799C-14.385,14.954 -13.964,15.282 -13.696,15.733L-9.232,23.251ZM6.858,28.026C6.834,28.026 6.811,28.026 6.786,28.025L-10.531,27.432C-11.25,27.408 -11.907,27.018 -12.274,26.4L-16.937,18.547C-19.416,17.648 -21.859,16.514 -24.219,15.17L-31.726,16.543C-32.435,16.676 -33.158,16.433 -33.649,15.907L-45.475,3.244C-45.966,2.717 -46.155,1.978 -45.978,1.281L-44.09,-6.129C-45.237,-8.476 -46.197,-10.983 -46.949,-13.599L-54.48,-18.8C-55.072,-19.208 -55.415,-19.891 -55.391,-20.61L-54.797,-37.927C-54.773,-38.646 -54.384,-39.303 -53.765,-39.67L-45.899,-44.341C-44.966,-46.895 -43.835,-49.327 -42.529,-51.589L-43.909,-59.122C-44.038,-59.829 -43.798,-60.555 -43.273,-61.045L-30.608,-72.872C-30.082,-73.365 -29.342,-73.552 -28.645,-73.375L-21.21,-71.48C-18.805,-72.65 -16.306,-73.614 -13.761,-74.351L-8.564,-81.876C-8.156,-82.468 -7.485,-82.834 -6.755,-82.787L10.562,-82.193C11.281,-82.168 11.938,-81.78 12.305,-81.161L16.978,-73.294C19.459,-72.385 21.884,-71.254 24.204,-69.922L31.758,-71.306C32.467,-71.435 33.19,-71.196 33.682,-70.67L45.507,-58.004C45.998,-57.478 46.188,-56.739 46.01,-56.041L44.115,-48.604C45.286,-46.198 46.249,-43.7 46.986,-41.158L54.511,-35.961C55.104,-35.553 55.446,-34.871 55.422,-34.152L54.829,-16.833C54.804,-16.115 54.415,-15.457 53.796,-15.09L45.927,-10.417C44.995,-7.865 43.865,-5.434 42.561,-3.174L43.94,4.362C44.07,5.069 43.83,5.795 43.304,6.285L30.64,18.109C30.114,18.601 29.376,18.791 28.677,18.612L21.276,16.726C18.836,17.904 16.324,18.867 13.788,19.596L8.596,27.115C8.201,27.686 7.551,28.026 6.858,28.026" style="fill:rgb(236,236,236);fill-rule:nonzero;"/>
                </g>
                <g transform="matrix(1,0,0,1,383.439,93.4152)">
                    <path d="M0,11.908L-7.174,9.981L-9.1,2.808L-6.291,0L-3.328,6.137L2.809,9.099L0,11.908Z" style="fill:rgb(225,225,225);fill-rule:nonzero;"/>
                </g>
                <g transform="matrix(1,0,0,1,383.884,90.4345)">
                    <path d="M0,10.087C1.307,8.78 1.307,6.65 0,5.343C-1.307,4.037 -3.427,4.046 -4.734,5.353L-1.166,0L3.619,2.419L4.668,7.447L0,10.087Z" style="fill:rgb(225,225,225);fill-rule:nonzero;"/>
                </g>
                <g transform="matrix(1,0,0,1,386.127,93.5263)">
                    <path d="M0,4.753C1.307,3.446 1.307,1.315 0,0.009C-1.307,-1.298 -3.427,-1.288 -4.734,0.019C-6.041,1.325 -6.041,3.437 -4.734,4.743C-3.427,6.05 -1.307,6.06 0,4.753M-9.545,0.455L-4.289,-4.802L2.885,-2.876L4.811,4.298L-0.446,9.555L-7.619,7.628L-9.545,0.455Z" style="fill:rgb(240,240,240);fill-rule:nonzero;"/>
                </g>
                <g transform="matrix(1,0,0,1,90.2209,290.318)">
                    <path d="M0,6.39L3.849,5.356L4.883,1.507L3.376,0L1.786,3.292L-1.507,4.883L0,6.39Z" style="fill:rgb(225,225,225);fill-rule:nonzero;"/>
                </g>
                <g transform="matrix(1,0,0,1,89.9817,288.719)">
                    <path d="M0,5.413C-0.701,4.711 -0.701,3.568 0,2.867C0.701,2.166 1.839,2.171 2.541,2.872L0.626,0L-1.942,1.298L-2.505,3.996L0,5.413Z" style="fill:rgb(225,225,225);fill-rule:nonzero;"/>
                </g>
                <g transform="matrix(1,0,0,1,88.7783,290.378)">
                    <path d="M0,2.55C-0.701,1.849 -0.701,0.706 0,0.005C0.701,-0.696 1.839,-0.691 2.541,0.01C3.242,0.711 3.242,1.844 2.541,2.545C1.839,3.246 0.701,3.251 0,2.55M5.122,0.244L2.301,-2.577L-1.548,-1.544L-2.582,2.306L0.239,5.127L4.089,4.093L5.122,0.244Z" style="fill:rgb(240,240,240);fill-rule:nonzero;"/>
                </g>
                <g transform="matrix(1,0,0,1,76.3625,85.8331)">
                    <path d="M0,-0.171L3.195,3.024C4.027,3.856 5.388,3.856 6.22,3.024C7.052,2.192 7.052,0.831 6.22,-0.001L3.025,-3.195C2.193,-4.027 0.832,-4.027 0,-3.195C-0.832,-2.363 -0.832,-1.002 0,-0.171" style="fill:rgb(240,240,240);fill-rule:nonzero;"/>
                </g>
                <g transform="matrix(-0.941132,0.338038,0.338038,0.941132,78.4438,85.3197)">
                    <path d="M1.503,-8.631C-1.113,-8.63 -3.234,-6.64 -3.234,-4.184C-3.234,-1.728 -1.113,0.261 1.503,0.262C4.119,0.261 6.24,-1.729 6.24,-4.184C6.24,-6.64 4.119,-8.63 1.503,-8.631" style="fill:rgb(225,225,225);fill-rule:nonzero;"/>
                </g>
                <g transform="matrix(0.337815,0.941213,0.941213,-0.337815,72.931,77.5569)">
                    <rect x="4.301" y="-3.989" width="1.368" height="10.102" style="fill:rgb(240,240,240);"/>
                </g>
                <g transform="matrix(0,-1,-1,0,250,222.349)">
                    <path d="M-193.889,-193.889C-200.143,-193.889 -205.212,-107.082 -205.212,0C-205.212,107.082 -200.143,193.889 -193.889,193.889C-187.635,193.889 -182.566,107.082 -182.566,0C-182.566,-107.082 -187.635,-193.889 -193.889,-193.889" style="fill:rgb(245,245,245);fill-rule:nonzero;"/>
                </g>
                <g transform="matrix(1,0,0,1,95.0598,115.818)">
                    <path d="M0,2.971C0.619,5.695 1.57,7.536 2.853,8.495C4.135,9.456 5.647,9.737 7.389,9.34C9.18,8.934 10.434,8.036 11.15,6.648C11.867,5.259 11.882,3.056 11.196,0.038C10.619,-2.501 9.685,-4.24 8.394,-5.179C7.104,-6.117 5.581,-6.387 3.827,-5.988C2.146,-5.606 0.932,-4.704 0.185,-3.283C-0.563,-1.861 -0.625,0.223 0,2.971M-8.344,4.828C-9.345,0.425 -8.898,-3.282 -7.002,-6.295C-5.107,-9.305 -1.969,-11.308 2.411,-12.304C6.9,-13.325 10.633,-12.906 13.61,-11.048C16.587,-9.189 18.569,-6.09 19.557,-1.747C20.273,1.407 20.331,4.113 19.729,6.371C19.126,8.631 17.949,10.55 16.199,12.128C14.448,13.707 12.076,14.835 9.083,15.516C6.041,16.208 3.413,16.296 1.199,15.781C-1.015,15.265 -2.979,14.099 -4.695,12.282C-6.411,10.466 -7.627,7.982 -8.344,4.828" style="fill:rgb(26,46,53);fill-rule:nonzero;"/>
                </g>
                <g transform="matrix(1,0,0,1,126.097,113.704)">
                    <path d="M0,1.919C0.396,3.66 1.041,4.868 1.937,5.543C2.831,6.217 3.813,6.432 4.88,6.19C5.959,5.943 6.752,5.331 7.258,4.352C7.765,3.372 7.812,1.975 7.399,0.16C7.014,-1.533 6.377,-2.715 5.49,-3.384C4.603,-4.053 3.644,-4.27 2.613,-4.036C1.521,-3.788 0.715,-3.162 0.195,-2.16C-0.326,-1.159 -0.391,0.201 0,1.919M-7.504,3.644C-8.182,0.663 -7.734,-2.022 -6.161,-4.412C-4.589,-6.802 -2.091,-8.386 1.332,-9.163C5.245,-10.053 8.459,-9.591 10.975,-7.775C12.997,-6.312 14.313,-4.244 14.92,-1.57C15.604,1.437 15.167,4.125 13.61,6.498C12.053,8.871 9.514,10.458 5.993,11.258C2.853,11.972 0.132,11.753 -2.168,10.598C-4.998,9.164 -6.776,6.846 -7.504,3.644" style="fill:rgb(26,46,53);fill-rule:nonzero;"/>
                </g>
                <g transform="matrix(1,0,0,1,152.194,116.386)">
                    <path d="M0,-6.677C0.351,-5.131 0.937,-4.058 1.757,-3.457C2.578,-2.857 3.484,-2.67 4.478,-2.896C5.349,-3.094 5.998,-3.618 6.423,-4.47C6.849,-5.322 6.867,-6.606 6.476,-8.323C6.116,-9.906 5.545,-10.998 4.763,-11.601C3.981,-12.204 3.148,-12.405 2.265,-12.204C1.309,-11.987 0.596,-11.43 0.128,-10.538C-0.339,-9.644 -0.382,-8.358 0,-6.677M-3.609,12.18L-9.742,-14.796L-2.731,-16.391L-2.074,-13.502C-1.381,-14.936 -0.679,-15.959 0.033,-16.573C0.994,-17.398 2.137,-17.961 3.462,-18.262C6.075,-18.857 8.323,-18.316 10.207,-16.642C12.091,-14.967 13.367,-12.657 14.037,-9.713C14.776,-6.462 14.561,-3.804 13.392,-1.739C12.223,0.327 10.448,1.631 8.068,2.172C6.916,2.433 5.819,2.476 4.779,2.3C3.739,2.123 2.757,1.734 1.833,1.132L3.954,10.461L-3.609,12.18Z" style="fill:rgb(26,46,53);fill-rule:nonzero;"/>
                </g>
                <g transform="matrix(1,0,0,1,169.435,97.0068)">
                    <path d="M0,13.292L7.275,10.902C7.782,11.716 8.355,12.25 8.994,12.506C9.632,12.76 10.412,12.783 11.332,12.574C12.337,12.345 13.068,11.954 13.522,11.399C13.879,10.983 14.003,10.537 13.895,10.059C13.772,9.52 13.396,9.167 12.765,9.002C12.313,8.886 11.18,8.873 9.369,8.962C6.665,9.101 4.764,9.091 3.664,8.936C2.563,8.778 1.562,8.32 0.661,7.559C-0.241,6.798 -0.826,5.827 -1.094,4.651C-1.386,3.364 -1.264,2.171 -0.728,1.069C-0.191,-0.032 0.681,-0.963 1.89,-1.721C3.098,-2.479 4.806,-3.108 7.014,-3.61C9.345,-4.141 11.105,-4.353 12.297,-4.25C13.488,-4.146 14.54,-3.805 15.452,-3.226C16.364,-2.646 17.21,-1.774 17.991,-0.609L11.047,1.705C10.721,1.12 10.31,0.73 9.814,0.534C9.135,0.274 8.379,0.239 7.545,0.43C6.699,0.622 6.117,0.912 5.798,1.3C5.48,1.688 5.37,2.097 5.467,2.525C5.576,3.003 5.903,3.309 6.45,3.441C6.996,3.576 8.113,3.553 9.802,3.375C12.356,3.092 14.298,3.063 15.626,3.289C16.955,3.515 18.047,4.021 18.903,4.806C19.759,5.591 20.313,6.541 20.567,7.656C20.823,8.784 20.732,9.958 20.294,11.179C19.855,12.399 18.975,13.492 17.652,14.457C16.33,15.42 14.405,16.19 11.878,16.766C8.309,17.577 5.65,17.645 3.904,16.972C2.157,16.298 0.856,15.071 0,13.292" style="fill:rgb(26,46,53);fill-rule:nonzero;"/>
                </g>
                <g transform="matrix(1,0,0,1,194.249,92.2931)">
                    <path d="M0,14.161L7.661,14.118L7.7,20.891L0.039,20.935L0,14.161ZM-0.401,-6.727L7.808,-6.774L7.843,-0.47L6.33,12.201L1.253,12.229L-0.365,-0.424L-0.401,-6.727Z" style="fill:rgb(26,46,53);fill-rule:nonzero;"/>
                </g>
                <g transform="matrix(1,0,0,1,109.268,170.347)">
                    <path d="M0,-22.599C-0.168,-22.444 -0.655,-21.814 -1.352,-19.378C-2.271,-16.165 -1.705,-13.235 -0.625,-11.132C-0.417,-11.566 -0.274,-12.066 -0.175,-12.535C0.863,-17.445 0.561,-21.888 0,-22.599M6.586,-19.449C6.328,-18.963 5.894,-17.964 5.246,-15.919C4.388,-13.211 4.383,-11.036 4.861,-9.371C4.895,-9.455 4.926,-9.539 4.954,-9.622C6.131,-13.061 6.704,-17.797 6.586,-19.449M13.758,-15.236C13.755,-15.236 13.193,-15.232 11.931,-12.889C10.485,-10.204 10.116,-7.995 10.804,-6.132C10.888,-5.905 10.987,-5.682 11.104,-5.462C11.638,-5.691 12.095,-6.063 12.425,-6.567C13.825,-8.707 14.496,-13.105 13.975,-14.824C13.869,-15.175 13.759,-15.236 13.758,-15.236M19.413,1.234C19.353,1.234 19.292,1.223 19.232,1.2C14.731,-0.543 12.038,-2.246 10.64,-4.292C9.624,-4.088 8.486,-4.223 7.408,-4.737C6.359,-5.235 5.351,-6.106 4.627,-7.359C3.952,-6.838 3.118,-6.696 2.202,-6.984C1.186,-7.303 0.129,-8.159 -0.75,-9.395C-1.309,-8.991 -1.882,-8.93 -2.303,-8.965C-5.276,-9.207 -9.304,-15.125 -9.593,-21.432C-9.606,-21.707 -9.393,-21.942 -9.117,-21.953C-8.847,-21.977 -8.607,-21.753 -8.594,-21.477C-8.32,-15.492 -4.485,-10.146 -2.222,-9.962C-1.855,-9.926 -1.547,-10.041 -1.29,-10.242C-2.648,-12.624 -3.353,-16.023 -2.313,-19.654C-1.453,-22.659 -0.693,-23.833 0.219,-23.616C1.942,-23.187 1.716,-16.644 0.804,-12.328C0.597,-11.349 0.298,-10.647 -0.042,-10.145C0.748,-8.98 1.682,-8.196 2.501,-7.938C3.233,-7.708 3.775,-7.903 4.175,-8.284C3.389,-10.219 3.227,-12.858 4.293,-16.222C5.697,-20.651 6.262,-20.771 6.6,-20.842C6.838,-20.893 7.075,-20.814 7.244,-20.622C8.168,-19.579 7.064,-12.701 5.9,-9.298C5.749,-8.856 5.562,-8.469 5.343,-8.141C5.964,-6.924 6.879,-6.095 7.836,-5.64C8.604,-5.275 9.392,-5.142 10.109,-5.209C10.019,-5.399 9.938,-5.59 9.866,-5.786C9.073,-7.933 9.46,-10.411 11.05,-13.364C12.105,-15.322 12.966,-16.235 13.758,-16.236L13.759,-16.236C13.994,-16.236 14.434,-16.149 14.745,-15.574C15.617,-13.964 14.986,-8.655 13.262,-6.02C12.856,-5.399 12.295,-4.928 11.645,-4.621C12.984,-2.86 15.528,-1.307 19.593,0.268C19.851,0.368 19.979,0.657 19.879,0.915C19.802,1.113 19.613,1.234 19.413,1.234" style="fill:rgb(26,46,53);fill-rule:nonzero;"/>
                </g>
                <g transform="matrix(1,0,0,1,169.3,222.36)">
                    <path d="M0,-9.548C0.056,-9.392 0.278,-8.981 1.166,-8.16C2.652,-6.786 4.004,-6.175 5.297,-6.317C5.403,-6.327 5.51,-6.343 5.617,-6.364C5.546,-6.668 5.401,-6.949 5.183,-7.19C3.775,-8.732 0.683,-9.708 0,-9.548M-3.49,-5.299C-3.154,-5.051 -2.672,-4.723 -1.984,-4.292C-0.627,-3.444 0.583,-3.052 1.616,-2.97C-0.041,-3.997 -2.208,-4.906 -3.49,-5.299M-2.602,1.637C-4.127,1.637 -5.731,1.289 -7.164,0.448C-7.402,0.307 -7.481,0.002 -7.342,-0.236C-7.203,-0.476 -6.896,-0.553 -6.658,-0.415C-3.09,1.68 1.521,0.218 2.47,-1.308C2.58,-1.486 2.681,-1.714 2.617,-1.979C1.206,-1.829 -0.53,-2.203 -2.514,-3.444C-5.059,-5.035 -5.255,-5.508 -5.239,-5.887C-5.229,-6.11 -5.102,-6.306 -4.898,-6.41C-3.903,-6.915 0.607,-4.836 2.487,-3.601C2.733,-3.439 2.94,-3.264 3.108,-3.078C3.94,-3.28 4.583,-3.71 5.011,-4.224C5.305,-4.576 5.501,-4.961 5.599,-5.346C5.532,-5.336 5.465,-5.328 5.398,-5.321C3.8,-5.16 2.196,-5.847 0.487,-7.426C-0.687,-8.511 -1.143,-9.259 -0.991,-9.852C-0.942,-10.04 -0.784,-10.377 -0.272,-10.505C1.111,-10.849 4.525,-9.394 5.921,-7.863C6.236,-7.52 6.449,-7.114 6.563,-6.68C7.868,-7.293 9.248,-8.668 10.882,-10.951C11.043,-11.176 11.354,-11.228 11.58,-11.067C11.804,-10.906 11.856,-10.594 11.695,-10.369C9.806,-7.73 8.231,-6.234 6.649,-5.623C6.587,-4.919 6.296,-4.203 5.78,-3.583C5.273,-2.976 4.534,-2.454 3.599,-2.172C3.698,-1.722 3.608,-1.246 3.319,-0.78C2.476,0.577 0.058,1.637 -2.602,1.637" style="fill:rgb(26,46,53);fill-rule:nonzero;"/>
                </g>
                <g transform="matrix(1,0,0,1,101.094,192.772)">
                    <path d="M0,44.176L25.959,-1.391L33.203,38.145L0,44.176ZM78.848,29.853L63.266,32.683L49.12,-44.529L19.056,-39.068L-29.933,47.931L-24.673,76.639L38.164,65.225L42.467,88.705L72.53,83.244L68.228,59.764L83.81,56.933L78.848,29.853Z" style="fill:rgb(0,124,255);fill-rule:nonzero;"/>
                </g>
                <g transform="matrix(1,0,0,1,305.43,193.982)">
                    <path d="M0,-50.991C-0.582,-56.325 -1.647,-61.064 -3.197,-65.209C-4.747,-69.353 -7.077,-73.417 -10.187,-77.398C-13.297,-81.38 -17.532,-84.835 -22.891,-87.764C-28.251,-90.692 -35.325,-92.731 -44.114,-93.877C-62.406,-96.26 -76.665,-93.012 -86.895,-84.137C-97.127,-75.26 -103.858,-58.256 -107.093,-33.125C-108.409,-22.904 -108.735,-13.456 -108.07,-4.78C-107.407,3.895 -105.815,10.872 -103.292,16.153C-99.841,23.572 -94.957,29.496 -88.643,33.924C-82.33,38.353 -73.681,41.284 -62.693,42.716C-43.097,45.269 -28.574,41.507 -19.124,31.428C-9.676,21.351 -3.407,4.317 -0.319,-19.673C1.059,-30.374 1.164,-40.813 0,-50.991" style="fill:rgb(0,124,255);fill-rule:nonzero;"/>
                </g>
                <g transform="matrix(1,0,0,1,251.766,110.409)">
                    <path d="M0,116.024C-2.405,115.942 -4.964,115.725 -7.607,115.38C-16.762,114.189 -23.845,111.872 -28.661,108.493C-33.412,105.161 -37.007,100.777 -39.653,95.087L-39.702,94.984C-41.625,90.961 -42.881,85.23 -43.437,77.956C-44.042,70.068 -43.733,61.286 -42.518,51.853C-38.949,24.132 -31.577,12.566 -26.021,7.746C-19.543,2.126 -10.801,-0.414 0.708,-0.02C3.066,0.06 5.563,0.271 8.13,0.605C15.516,1.567 21.36,3.202 25.5,5.462C29.509,7.654 32.642,10.172 34.81,12.948C37.214,16.024 39.015,19.142 40.164,22.216C41.387,25.487 42.25,29.376 42.729,33.774C43.794,43.084 43.694,52.728 42.436,62.496C39.663,84.035 34.307,99.169 26.516,107.477C20.737,113.642 12.064,116.438 0.002,116.025C0.001,116.024 0,116.024 0,116.024" style="fill:rgb(26,46,53);fill-rule:nonzero;"/>
                </g>
                <g transform="matrix(1,0,0,1,245.741,125.506)">
                    <path d="M0,30.052C-8.295,29.768 -14.791,22.812 -14.507,14.516C-14.222,6.211 -7.266,-0.284 1.03,0C9.325,0.284 15.82,7.24 15.536,15.545C15.251,23.841 8.295,30.336 0,30.052M25.595,17.781L25.725,13.993L23.399,13.234C23.304,11.94 23.087,10.661 22.779,9.43L24.75,7.977L23.411,4.419L20.973,4.615C20.392,3.465 19.709,2.37 18.944,1.344L20.207,-0.764L17.61,-3.534L15.431,-2.419C14.449,-3.253 13.414,-4.009 12.306,-4.677L12.659,-7.096L9.201,-8.666L7.616,-6.808C6.409,-7.2 5.158,-7.494 3.865,-7.687L3.275,-10.059L-0.523,-10.189L-1.273,-7.864C-2.577,-7.759 -3.845,-7.552 -5.076,-7.244L-6.54,-9.205L-10.097,-7.876L-9.901,-5.437C-11.052,-4.846 -12.146,-4.164 -13.173,-3.398L-15.271,-4.661L-18.051,-2.075L-16.935,0.115C-17.769,1.086 -18.525,2.131 -19.183,3.24L-21.602,2.876L-23.182,6.334L-21.315,7.919C-21.706,9.127 -22.01,10.387 -22.194,11.671L-24.576,12.27L-24.706,16.058L-22.37,16.819C-22.275,18.122 -22.058,19.391 -21.75,20.621L-23.721,22.075L-22.382,25.633L-19.944,25.437C-19.363,26.587 -18.68,27.681 -17.915,28.708L-19.178,30.816L-16.581,33.586L-14.401,32.47C-13.429,33.304 -12.385,34.061 -11.277,34.729L-11.64,37.148L-8.182,38.717L-6.587,36.861C-5.38,37.252 -4.129,37.545 -2.835,37.739L-2.246,40.112L1.552,40.241L2.302,37.915C3.606,37.81 4.874,37.604 6.105,37.295L7.559,39.256L11.117,37.927L10.93,35.489C12.081,34.899 13.165,34.215 14.202,33.45L16.3,34.713L19.08,32.126L17.964,29.938C18.798,28.965 19.554,27.92 20.213,26.813L22.632,27.176L24.211,23.717L22.344,22.132C22.736,20.925 23.039,19.675 23.223,18.38L25.595,17.781Z" style="fill:rgb(0,124,255);fill-rule:nonzero;"/>
                </g>
                <g opacity="0.3">
                    <g transform="matrix(1,0,0,1,274.248,207.581)">
                        <path d="M0,4.293C-1.186,6.453 -3.905,7.249 -6.064,6.064C-8.223,4.877 -9.008,2.159 -7.822,-0C-6.637,-2.159 -3.93,-2.944 -1.77,-1.759C0.389,-0.573 1.186,2.134 0,4.293M12.874,5.284L13.149,2.731L11.614,2.105C11.608,1.228 11.533,0.358 11.387,-0.489L12.786,-1.378L12.075,-3.848L10.413,-3.834C10.078,-4.642 9.683,-5.416 9.217,-6.145L10.164,-7.506L8.559,-9.503L7.028,-8.865C6.416,-9.472 5.757,-10.032 5.037,-10.536L5.408,-12.163L3.157,-13.398L1.981,-12.21C1.174,-12.554 0.34,-12.805 -0.496,-12.997L-0.779,-14.633L-3.332,-14.919L-3.958,-13.385C-4.836,-13.379 -5.694,-13.292 -6.553,-13.145L-7.44,-14.558L-9.911,-13.834L-9.898,-12.172C-10.694,-11.837 -11.468,-11.441 -12.209,-10.976L-13.569,-11.936L-15.567,-10.33L-14.928,-8.799C-15.523,-8.186 -16.096,-7.527 -16.6,-6.808L-18.215,-7.168L-19.45,-4.916L-18.273,-3.753C-18.605,-2.933 -18.867,-2.11 -19.06,-1.263L-20.696,-0.991L-20.971,1.562L-19.437,2.199C-19.443,3.065 -19.355,3.935 -19.209,4.782L-20.62,5.67L-19.897,8.141L-18.236,8.139C-17.9,8.935 -17.505,9.709 -17.039,10.439L-17.998,11.798L-16.394,13.808L-14.85,13.158C-14.239,13.764 -13.579,14.325 -12.859,14.829L-13.231,16.455L-10.979,17.691L-9.804,16.514C-8.996,16.846 -8.162,17.098 -7.326,17.289L-7.043,18.926L-4.49,19.212L-3.864,17.677C-2.998,17.672 -2.129,17.585 -1.27,17.439L-0.382,18.85L2.077,18.126L2.076,16.465C2.871,16.129 3.645,15.734 4.387,15.269L5.735,16.228L7.744,14.623L7.095,13.091C7.701,12.48 8.261,11.82 8.778,11.101L10.392,11.46L11.628,9.209L10.451,8.045C10.783,7.226 11.033,6.403 11.226,5.567L12.874,5.284Z" style="fill:rgb(0,124,255);fill-rule:nonzero;"/>
                    </g>
                </g>
                <g transform="matrix(1,0,0,1,281.559,165.029)">
                    <path d="M0,14.244C-3.936,14.109 -7.01,10.806 -6.875,6.881C-6.741,2.945 -3.448,-0.13 0.488,0.005C4.424,0.14 7.498,3.432 7.364,7.369C7.229,11.293 3.936,14.379 0,14.244M19.731,4.62L16.75,2.561C16.75,2.559 16.749,2.556 16.749,2.555C16.454,1.472 16.047,0.429 15.55,-0.551L16.313,-3.548L11.99,-8.178L8.946,-7.621C8.004,-8.184 6.992,-8.66 5.933,-9.028C5.931,-9.029 5.928,-9.029 5.926,-9.03L4.075,-12.147L-2.256,-12.363L-4.315,-9.383L-4.326,-9.38C-5.408,-9.085 -6.449,-8.679 -7.428,-8.183L-10.424,-8.946L-15.054,-4.622L-14.498,-1.585C-14.499,-1.584 -14.499,-1.583 -14.5,-1.582C-15.074,-0.629 -15.54,0.383 -15.908,1.442L-19.023,3.292L-19.24,9.624L-16.257,11.683C-15.962,12.774 -15.568,13.814 -15.061,14.803L-15.061,14.804L-15.822,17.791L-11.499,22.422L-8.474,21.868C-7.519,22.432 -6.506,22.91 -5.434,23.278C-5.433,23.278 -5.432,23.279 -5.431,23.279L-3.584,26.39L2.747,26.607L4.804,23.629C5.899,23.334 6.942,22.928 7.932,22.43L7.933,22.43L10.915,23.189L15.545,18.866L14.99,15.828C15.564,14.875 16.029,13.862 16.397,12.803L16.398,12.803L19.514,10.951L19.731,4.62Z" style="fill:white;fill-rule:nonzero;"/>
                </g>
                <g transform="matrix(1,0,0,1,317.954,111.695)">
                    <path d="M0,0.943C-0.26,-0.513 0.711,-1.902 2.162,-2.161C3.618,-2.422 5.007,-1.455 5.267,0.001C5.528,1.456 4.561,2.844 3.105,3.105C1.653,3.365 0.26,2.398 0,0.943M5.088,7.429L5.609,6.173C5.61,6.172 5.611,6.172 5.612,6.172C5.986,5.978 6.337,5.747 6.657,5.487L7.818,5.532L9.178,3.579L8.733,2.505C8.866,2.115 8.961,1.707 9.013,1.288L9.013,1.286L10.011,0.36L9.593,-1.982L8.336,-2.502C8.335,-2.504 8.334,-2.505 8.334,-2.506C8.14,-2.88 7.909,-3.231 7.65,-3.551L7.694,-4.711L5.742,-6.071L4.67,-5.627C4.67,-5.627 4.67,-5.628 4.669,-5.628C4.274,-5.764 3.866,-5.855 3.448,-5.907L2.523,-6.905L0.181,-6.486L-0.34,-5.228C-0.717,-5.035 -1.068,-4.807 -1.391,-4.543L-2.549,-4.587L-3.908,-2.635L-3.467,-1.569C-3.599,-1.173 -3.694,-0.764 -3.745,-0.341L-3.745,-0.34L-4.742,0.584L-4.323,2.925L-3.067,3.446C-2.873,3.825 -2.642,4.175 -2.381,4.5L-2.381,4.501L-2.425,5.655L-0.472,7.015L0.599,6.571C0.994,6.708 1.403,6.798 1.821,6.85L2.746,7.848L5.088,7.429Z" style="fill:rgb(0,124,255);fill-rule:nonzero;"/>
                </g>
                <g transform="matrix(-0.764107,-0.64509,-0.64509,0.764107,301.798,109.079)">
                    <path d="M2.531,6.599L3.531,6.599C3.53,4.542 3.376,1.805 2.184,-1.119L1.257,-0.741C2.53,2.375 2.53,5.336 2.531,6.599" style="fill:rgb(0,124,255);fill-rule:nonzero;"/>
                </g>
                <g transform="matrix(-0.394522,-0.918887,-0.918887,0.394522,312.682,109.621)">
                    <path d="M6.177,7.242L7.178,7.242C7.174,3.127 6.196,-0.754 4.274,-4.286L3.396,-3.808C5.247,-0.425 6.176,3.295 6.177,7.242" style="fill:rgb(0,124,255);fill-rule:nonzero;"/>
                </g>
                <g transform="matrix(-0.826778,-0.562529,-0.562529,0.826778,311.342,109.737)">
                    <path d="M5.729,8.715L6.728,8.715C6.727,5.065 4.849,0.61 2.161,-2.12L1.45,-1.419C3.967,1.141 5.728,5.308 5.729,8.715" style="fill:rgb(0,124,255);fill-rule:nonzero;"/>
                </g>
                <g transform="matrix(1,0,0,1,224.366,196.256)">
                    <path d="M0,-13.592C-1.818,-10.849 -2.458,-7.561 -1.803,-4.334C-1.148,-1.109 0.724,1.67 3.468,3.488C9.135,7.242 16.797,5.689 20.549,0.026C24.303,-5.638 22.75,-13.304 17.087,-17.061C11.425,-20.814 3.76,-19.258 0,-13.592M10.258,6.536C7.73,6.536 5.176,5.82 2.916,4.322C-0.051,2.356 -2.075,-0.648 -2.783,-4.135C-3.492,-7.623 -2.799,-11.178 -0.833,-14.145C3.232,-20.27 11.519,-21.951 17.64,-17.895C23.762,-13.832 25.441,-5.545 21.383,0.579C18.823,4.442 14.58,6.536 10.258,6.536M5.34,9.771C5.388,9.771 5.435,9.778 5.481,9.792C6.552,10.106 7.666,10.314 8.792,10.408C8.913,10.418 9.026,10.471 9.11,10.558L11.146,12.657L17.047,11.46L18.107,8.727C18.151,8.614 18.235,8.52 18.342,8.465C19.345,7.942 20.292,7.32 21.158,6.614C21.249,6.54 21.352,6.489 21.481,6.502L24.952,6.554L28.278,1.535L26.874,-1.649C26.827,-1.756 26.819,-1.877 26.852,-1.99C27.168,-3.081 27.375,-4.196 27.468,-5.301C27.478,-5.422 27.531,-5.534 27.618,-5.619L29.717,-7.655L28.521,-13.557L25.793,-14.614C25.677,-14.659 25.583,-14.745 25.527,-14.857C25.007,-15.857 24.384,-16.8 23.676,-17.662C23.601,-17.754 23.561,-17.869 23.562,-17.988L23.616,-21.461L18.596,-24.788L15.42,-23.388C15.313,-23.341 15.192,-23.333 15.079,-23.364C13.995,-23.68 12.877,-23.887 11.756,-23.981C11.636,-23.99 11.523,-24.044 11.439,-24.13L9.406,-26.227L3.504,-25.03L2.447,-22.303C2.403,-22.19 2.319,-22.096 2.211,-22.04C1.215,-21.522 0.267,-20.898 -0.605,-20.186C-0.697,-20.112 -0.818,-20.059 -0.931,-20.071L-4.4,-20.125L-7.727,-15.105L-6.325,-11.926C-6.265,-11.789 -6.269,-11.633 -6.335,-11.5C-6.617,-10.501 -6.824,-9.386 -6.917,-8.267C-6.927,-8.147 -6.98,-8.034 -7.067,-7.949L-9.166,-5.914L-7.969,-0.013L-5.244,1.044C-5.122,1.091 -5.024,1.183 -4.97,1.301C-4.452,2.293 -3.831,3.234 -3.126,4.092C-3.051,4.183 -3.009,4.301 -3.011,4.419L-3.064,7.89L1.955,11.219L5.139,9.814C5.203,9.786 5.271,9.771 5.34,9.771M10.977,13.701C10.843,13.701 10.713,13.647 10.618,13.549L8.521,11.387C7.454,11.287 6.397,11.091 5.376,10.802L2.108,12.243C1.953,12.314 1.773,12.296 1.63,12.203L-3.845,8.573C-3.987,8.478 -4.071,8.319 -4.068,8.148L-4.014,4.585C-4.679,3.757 -5.272,2.858 -5.78,1.908L-8.585,0.82C-8.744,0.759 -8.861,0.621 -8.895,0.454L-10.2,-5.984C-10.234,-6.151 -10.18,-6.323 -10.058,-6.443L-7.897,-8.538C-7.797,-9.601 -7.601,-10.658 -7.313,-11.688L-8.752,-14.951C-8.821,-15.108 -8.806,-15.287 -8.712,-15.43L-5.083,-20.905C-4.989,-21.047 -4.855,-21.135 -4.658,-21.129L-1.097,-21.074C-0.261,-21.742 0.639,-22.335 1.582,-22.839L2.67,-25.646C2.732,-25.805 2.871,-25.921 3.037,-25.955L9.475,-27.261C9.642,-27.293 9.814,-27.24 9.933,-27.119L12.027,-24.96C13.091,-24.861 14.15,-24.663 15.18,-24.375L18.443,-25.814C18.598,-25.882 18.778,-25.866 18.921,-25.773L24.396,-22.144C24.538,-22.049 24.622,-21.89 24.62,-21.719L24.565,-18.154C25.231,-17.324 25.824,-16.426 26.33,-15.479L29.137,-14.39C29.296,-14.328 29.412,-14.191 29.446,-14.024L30.751,-7.586C30.785,-7.419 30.731,-7.246 30.609,-7.127L28.447,-5.03C28.349,-3.98 28.152,-2.924 27.862,-1.887L29.304,1.382C29.373,1.538 29.357,1.719 29.263,1.86L25.634,7.335C25.54,7.476 25.391,7.548 25.21,7.558L21.647,7.505C20.817,8.167 19.918,8.758 18.972,9.263L17.881,12.076C17.819,12.235 17.681,12.351 17.514,12.386L11.077,13.691C11.043,13.698 11.01,13.701 10.977,13.701" style="fill:white;fill-rule:nonzero;"/>
                </g>
                <g transform="matrix(1,0,0,1,346.408,207.188)">
                    <path d="M0,13.744L38.758,-21.584L33.443,18.258L0,13.744ZM79.419,24.462L63.724,22.344L74.104,-55.465L43.823,-59.551L-29.63,8.075L-33.489,37.005L29.802,45.547L26.646,69.209L56.927,73.295L60.083,49.634L75.778,51.751L79.419,24.462Z" style="fill:rgb(0,124,255);fill-rule:nonzero;"/>
                </g>
                <g transform="matrix(1,0,0,1,394.134,150.781)">
                    <path d="M0,128.96C-0.03,128.96 -0.06,128.957 -0.09,128.952C-0.362,128.902 -0.542,128.642 -0.492,128.37L22.834,0.44C22.883,0.17 23.146,0 23.416,0.038C23.687,0.088 23.867,0.349 23.817,0.62L0.491,128.55C0.447,128.791 0.237,128.96 0,128.96" style="fill:rgb(26,46,53);fill-rule:nonzero;"/>
                </g>
                <g transform="matrix(0.0347775,-0.999395,-0.999395,-0.0347775,414.069,152.524)">
                    <path d="M-0.819,-0.791C-1.272,-0.791 -1.639,-0.425 -1.639,0.027C-1.639,0.48 -1.273,0.848 -0.819,0.847C-0.367,0.848 -0,0.481 0,0.029C0,-0.424 -0.367,-0.791 -0.819,-0.791" style="fill:rgb(26,46,53);fill-rule:nonzero;"/>
                </g>
                <g transform="matrix(0.0347775,-0.999395,-0.999395,-0.0347775,410.736,169.824)">
                    <path d="M-0.819,-0.791C-1.272,-0.791 -1.639,-0.425 -1.639,0.027C-1.639,0.48 -1.273,0.848 -0.819,0.847C-0.367,0.848 -0,0.481 0,0.029C0,-0.424 -0.367,-0.791 -0.819,-0.791" style="fill:rgb(26,46,53);fill-rule:nonzero;"/>
                </g>
                <g transform="matrix(0.0347775,-0.999395,-0.999395,-0.0347775,407.404,187.126)">
                    <path d="M-0.819,-0.791C-1.271,-0.792 -1.638,-0.425 -1.638,0.028C-1.638,0.48 -1.272,0.848 -0.819,0.848C-0.366,0.848 -0,0.481 0.001,0.029C0.001,-0.424 -0.366,-0.792 -0.819,-0.791" style="fill:rgb(26,46,53);fill-rule:nonzero;"/>
                </g>
                <g transform="matrix(0.0341681,-0.999416,-0.999416,-0.0341681,400.849,205.136)">
                    <path d="M-0.819,-0.792C-1.272,-0.792 -1.639,-0.425 -1.638,0.027C-1.638,0.48 -1.271,0.847 -0.819,0.846C-0.367,0.847 0,0.479 0,0.027C-0,-0.425 -0.367,-0.792 -0.819,-0.792" style="fill:rgb(26,46,53);fill-rule:nonzero;"/>
                </g>
                <g transform="matrix(0.0347775,-0.999395,-0.999395,-0.0347775,400.739,221.728)">
                    <path d="M-0.818,-0.791C-1.27,-0.792 -1.638,-0.424 -1.638,0.028C-1.638,0.48 -1.271,0.847 -0.818,0.848C-0.366,0.848 0.001,0.481 0.002,0.029C0.002,-0.423 -0.366,-0.791 -0.818,-0.791" style="fill:rgb(26,46,53);fill-rule:nonzero;"/>
                </g>
                <g transform="matrix(0.0347775,-0.999395,-0.999395,-0.0347775,397.406,239.028)">
                    <path d="M-0.819,-0.792C-1.271,-0.792 -1.639,-0.425 -1.639,0.027C-1.639,0.479 -1.272,0.847 -0.819,0.847C-0.367,0.848 0,0.48 0.001,0.028C0.001,-0.424 -0.367,-0.791 -0.819,-0.792" style="fill:rgb(26,46,53);fill-rule:nonzero;"/>
                </g>
                <g transform="matrix(0.0347775,-0.999395,-0.999395,-0.0347775,394.074,256.329)">
                    <path d="M-0.819,-0.791C-1.271,-0.791 -1.639,-0.425 -1.638,0.028C-1.638,0.48 -1.272,0.847 -0.819,0.848C-0.366,0.847 0.001,0.481 0.001,0.029C0.001,-0.424 -0.366,-0.791 -0.819,-0.791" style="fill:rgb(26,46,53);fill-rule:nonzero;"/>
                </g>
                <g transform="matrix(0.0347775,-0.999395,-0.999395,-0.0347775,390.741,273.631)">
                    <path d="M-0.818,-0.792C-1.27,-0.793 -1.638,-0.425 -1.638,0.027C-1.638,0.479 -1.271,0.846 -0.818,0.847C-0.366,0.847 0,0.48 0.002,0.028C0.002,-0.424 -0.366,-0.791 -0.818,-0.792" style="fill:rgb(26,46,53);fill-rule:nonzero;"/>
                </g>
                <g transform="matrix(1,0,0,1,400.794,204.878)">
                    <path d="M0,1.576C-0.23,1.576 -0.438,1.416 -0.488,1.18C-0.546,0.911 -0.375,0.645 -0.104,0.587L2.379,0.054C2.653,0 2.915,0.167 2.973,0.438C3.031,0.708 2.859,0.973 2.589,1.032L0.105,1.565C0.07,1.572 0.035,1.576 0,1.576" style="fill:rgb(26,46,53);fill-rule:nonzero;"/>
                </g>
                <g transform="matrix(1,0,0,1,409.085,218.026)">
                    <path d="M0,-20.785C0,-20.785 -2.238,-14.956 -2.991,-11.425C-3.744,-7.892 -3.79,0 -3.79,0" style="fill:rgb(26,46,53);fill-rule:nonzero;"/>
                </g>
                <g transform="matrix(1,0,0,1,405.295,196.676)">
                    <path d="M0,21.85L-0.003,21.85C-0.279,21.848 -0.501,21.623 -0.5,21.347C-0.498,21.023 -0.446,13.363 0.31,9.821C1.063,6.291 3.231,0.625 3.323,0.385C3.422,0.128 3.71,0 3.969,0.098C4.227,0.197 4.356,0.487 4.257,0.744C4.234,0.802 2.024,6.578 1.288,10.03C0.554,13.472 0.5,21.275 0.5,21.353C0.499,21.628 0.275,21.85 0,21.85" style="fill:rgb(26,46,53);fill-rule:nonzero;"/>
                </g>
                <g transform="matrix(1,0,0,1,222.452,242.535)">
                    <path d="M0,62.306C1.389,39.904 -1.166,-0.82 40.945,4.571C86.08,10.348 73.167,63.126 73.167,63.126L0,62.306Z" style="fill:rgb(26,46,53);fill-rule:nonzero;"/>
                </g>
                <g transform="matrix(0,-1,-1,0,251.513,254.624)">
                    <path d="M-18.376,-18.376C-28.523,-18.376 -36.751,-10.149 -36.751,-0C-36.751,10.149 -28.523,18.376 -18.376,18.376C-8.228,18.376 -0,10.149 -0,-0C-0,-10.149 -8.228,-18.376 -18.376,-18.376" style="fill:white;fill-rule:nonzero;"/>
                </g>
                <g transform="matrix(1,0,0,1,253.927,267.77)">
                    <path d="M0,-13.117C-8.704,-14.603 -18.01,-8.187 -18.927,-1.687L15.58,1.486C14.364,-5.924 6.906,-11.937 0,-13.117" style="fill:rgb(26,46,53);fill-rule:nonzero;"/>
                </g>
                <g transform="matrix(0.0513117,-0.998683,-0.998683,-0.0513117,260.729,266.886)">
                    <path d="M-5.401,-5.131C-10.211,-5.13 -14.111,-2.709 -14.111,0.278C-14.111,3.264 -10.211,5.686 -5.401,5.686C-0.592,5.686 3.309,3.265 3.309,0.278C3.309,-2.708 -0.59,-5.131 -5.401,-5.131" style="fill:rgb(26,46,53);fill-rule:nonzero;"/>
                </g>
                <g transform="matrix(1,0,0,1,251.514,290.375)">
                    <path d="M0,-34.75C-9.581,-34.75 -17.375,-26.956 -17.375,-17.375C-17.375,-7.794 -9.581,0 0,0C9.581,0 17.375,-7.794 17.375,-17.375C17.375,-26.956 9.581,-34.75 0,-34.75M0,2C-10.684,2 -19.375,-6.691 -19.375,-17.375C-19.375,-28.059 -10.684,-36.75 0,-36.75C10.684,-36.75 19.375,-28.059 19.375,-17.375C19.375,-6.691 10.684,2 0,2" style="fill:rgb(0,124,255);fill-rule:nonzero;"/>
                </g>
                <g opacity="0.3">
                    <g transform="matrix(1,0,0,1,290.485,275.592)">
                        <path d="M0,28.685C-0.039,28.685 -0.078,28.68 -0.118,28.671C-0.386,28.607 -0.551,28.336 -0.487,28.068C-0.454,27.933 2.732,14.373 -0.577,0.664C-0.642,0.396 -0.477,0.126 -0.208,0.061C0.057,0 0.33,0.161 0.395,0.43C3.763,14.38 0.519,28.164 0.485,28.302C0.43,28.532 0.226,28.685 0,28.685" style="fill:white;fill-rule:nonzero;"/>
                    </g>
                </g>
                <g opacity="0.3">
                    <g transform="matrix(1,0,0,1,287.698,259.931)">
                        <path d="M0,8.828C-0.19,8.828 -0.371,8.72 -0.455,8.536C-1.741,5.73 -3.336,3.154 -5.197,0.879C-5.372,0.665 -5.34,0.35 -5.126,0.176C-4.913,0 -4.598,0.031 -4.422,0.246C-2.508,2.587 -0.867,5.236 0.454,8.12C0.569,8.371 0.459,8.668 0.208,8.782C0.14,8.813 0.069,8.828 0,8.828" style="fill:white;fill-rule:nonzero;"/>
                    </g>
                </g>
                <g transform="matrix(1,0,0,1,128.735,371.014)">
                    <path d="M0,38.904C-0.125,38.904 -0.248,38.903 -0.372,38.899C-3.132,38.823 -5.309,36.524 -5.233,33.763C-5.158,31.004 -2.884,28.869 -0.098,28.903C-0.066,28.904 -0.034,28.904 -0.002,28.904C2.887,28.904 9.837,25.394 24.376,2.474C25.158,1.244 26.437,0.415 27.88,0.205C29.325,0 30.785,0.427 31.885,1.384C49.826,17.027 68.838,26.764 69.028,26.861C71.49,28.111 72.472,31.121 71.223,33.582C69.973,36.044 66.964,37.029 64.503,35.778C63.748,35.395 47.13,26.898 29.705,12.632C17.52,30.951 8.477,38.904 0,38.904" style="fill:rgb(26,46,53);fill-rule:nonzero;"/>
                </g>
                <g transform="matrix(1,0,0,1,159.67,315.743)">
                    <path d="M0,55.757C-0.142,55.757 -0.284,55.747 -0.428,55.727C-2.068,55.492 -3.208,53.973 -2.974,52.332C-2.263,47.356 -3.144,28.706 -9.448,14.206C-10.023,12.885 -9.577,11.342 -8.387,10.53C5.312,1.195 34.49,0.079 35.726,0.036C37.373,0 38.77,1.275 38.828,2.93C38.885,4.585 37.59,5.975 35.935,6.032C35.664,6.042 10.154,7.021 -2.954,14.235C2.63,28.673 3.896,46.671 2.966,53.182C2.752,54.678 1.469,55.757 0,55.757" style="fill:rgb(26,46,53);fill-rule:nonzero;"/>
                </g>
                <g transform="matrix(1,0,0,1,164.71,378.243)">
                    <path d="M0,-10.627C-1.996,-15.333 -10.988,-14.799 -16.268,-10.766C-19.09,-8.61 -22.909,-2.125 -23.311,0.226C-23.712,2.576 -22.083,4.706 -19.287,4.464C-15.84,4.165 -11.106,-0.845 -11.106,-0.845C-14.255,2.243 -10.192,4.422 -4.129,-0.044C-0.766,-2.521 2.234,-5.357 0,-10.627" style="fill:rgb(0,124,255);fill-rule:nonzero;"/>
                </g>
                <g transform="matrix(1,0,0,1,346.727,296.255)">
                    <path d="M0,-11.615C0.451,-11.447 0.961,-11.348 1.437,-11.292C6.42,-10.702 10.819,-11.399 11.477,-12.02C11.307,-12.175 10.636,-12.602 8.148,-13.078C4.866,-13.703 1.998,-12.88 0,-11.615M-1.261,-5.993C-1.175,-5.968 -1.088,-5.944 -1.003,-5.923C2.528,-5.058 7.295,-4.911 8.93,-5.179C8.424,-5.393 7.39,-5.735 5.295,-6.197C2.521,-6.808 0.353,-6.618 -1.261,-5.993M-4.595,0.575C-4.319,1.087 -3.908,1.509 -3.376,1.792C-1.119,2.993 3.32,3.268 4.986,2.596C5.326,2.458 5.377,2.344 5.377,2.343C5.377,2.34 5.322,1.781 2.876,0.734C0.073,-0.466 -2.162,-0.634 -3.955,0.216C-4.174,0.321 -4.387,0.44 -4.595,0.575M-10.021,9.906C-10.066,9.906 -10.113,9.901 -10.159,9.887C-10.424,9.811 -10.578,9.533 -10.501,9.269C-9.169,4.629 -7.714,1.794 -5.802,0.218C-6.095,-0.778 -6.062,-1.922 -5.649,-3.041C-5.247,-4.13 -4.47,-5.212 -3.287,-6.046C-3.866,-6.672 -4.082,-7.491 -3.877,-8.427C-3.651,-9.469 -2.893,-10.597 -1.741,-11.584C-2.194,-12.104 -2.305,-12.672 -2.308,-13.092C-2.333,-16.074 3.199,-20.617 9.454,-21.47C9.729,-21.521 9.98,-21.317 10.017,-21.043C10.054,-20.769 9.863,-20.517 9.589,-20.48C3.651,-19.67 -1.328,-15.371 -1.308,-13.1C-1.305,-12.732 -1.169,-12.436 -0.946,-12.197C1.305,-13.764 4.628,-14.772 8.336,-14.06C11.405,-13.473 12.653,-12.825 12.509,-11.893C12.237,-10.14 5.7,-9.778 1.319,-10.3C0.326,-10.418 -0.401,-10.652 -0.931,-10.945C-2.021,-10.054 -2.718,-9.054 -2.9,-8.215C-3.063,-7.466 -2.822,-6.943 -2.405,-6.579C-0.549,-7.536 2.064,-7.936 5.511,-7.174C10.047,-6.173 10.217,-5.62 10.319,-5.291C10.391,-5.055 10.333,-4.814 10.158,-4.629C9.202,-3.616 2.251,-4.096 -1.24,-4.952C-1.695,-5.063 -2.097,-5.215 -2.443,-5.403C-3.6,-4.675 -4.344,-3.69 -4.71,-2.695C-5.005,-1.897 -5.072,-1.102 -4.936,-0.392C-4.756,-0.5 -4.572,-0.597 -4.384,-0.687C-2.315,-1.669 0.187,-1.505 3.27,-0.186C5.314,0.69 6.301,1.464 6.373,2.253C6.394,2.487 6.348,2.933 5.802,3.295C4.277,4.308 -1.068,4.155 -3.846,2.675C-4.501,2.325 -5.021,1.81 -5.384,1.189C-7.019,2.682 -8.337,5.355 -9.541,9.544C-9.604,9.764 -9.803,9.906 -10.021,9.906" style="fill:rgb(26,46,53);fill-rule:nonzero;"/>
                </g>
                <g transform="matrix(1,0,0,1,206.528,413.359)">
                    <path d="M0,-5.111C0.658,-5.322 0.438,-5.958 -0.297,-5.958L-13.836,-5.958C-39.617,-8.688 -57.63,-5.029 -46.28,-4.167C-34.93,-3.303 -47.08,-3.485 -55.368,-0.349C-63.657,2.786 6.286,3.577 12.647,-0.349C18.514,-3.969 -9.135,-2.183 0,-5.111" style="fill:rgb(26,46,53);fill-rule:nonzero;"/>
                </g>
                <g transform="matrix(-0.999451,-0.0331306,-0.0331306,0.999451,199.184,292.383)">
                    <path d="M-108.199,116.334L9.668,116.334L18.339,2.337L-120.799,0.837L-108.199,116.334Z" style="fill:rgb(0,124,255);fill-rule:nonzero;"/>
                </g>
                <g transform="matrix(1,0,0,1,222.452,294.319)">
                    <path d="M0,115.734C-0.258,115.734 -0.477,115.537 -0.498,115.275L-9.941,0.554C-9.964,0.279 -9.759,0.038 -9.484,0.015C-9.201,0 -8.967,0.197 -8.944,0.472L0.499,115.193C0.521,115.468 0.317,115.71 0.042,115.732C0.027,115.733 0.014,115.734 0,115.734" style="fill:rgb(26,46,53);fill-rule:nonzero;"/>
                </g>
                <g transform="matrix(0.988611,-0.150494,-0.150494,-0.988611,312.36,414.716)">
                    <path d="M-8.418,3.788L23.61,3.788L49.453,107.288L25.125,115.023L-8.418,3.788Z" style="fill:rgb(0,124,255);fill-rule:nonzero;"/>
                </g>
                <g opacity="0.2">
                    <g transform="matrix(0.988611,-0.150494,-0.150494,-0.988611,312.36,414.716)">
                        <path d="M-8.418,3.788L23.61,3.788L49.453,107.288L25.125,115.023L-8.418,3.788Z" style="fill-rule:nonzero;"/>
                    </g>
                </g>
                <g transform="matrix(1,0,0,1,195.735,319.949)">
                    <path d="M0,66.366L-2.905,-1.495C-3.208,-8.578 2.539,-14.444 9.627,-14.285L97.686,-12.317C105.04,-12.152 110.597,-5.598 109.557,1.683L99.794,70.075C98.909,76.273 93.499,80.81 87.242,80.603L11.851,78.104C5.44,77.891 0.274,72.776 0,66.366" style="fill:rgb(26,46,53);fill-rule:nonzero;"/>
                </g>
                <g transform="matrix(1,0,0,1,205.247,343.382)">
                    <path d="M0,-16.894L13.624,-16.46L13.512,-12.948L4.983,-13.219L4.9,-10.605L12.812,-10.353L12.705,-6.998L4.793,-7.248L4.69,-4.005L13.466,-3.726L13.347,0L-0.524,-0.442L0,-16.894Z" style="fill:white;fill-rule:nonzero;"/>
                </g>
                <g transform="matrix(1,0,0,1,226.818,337.158)">
                    <path d="M0,-3.31L2.143,-3.242C2.375,-3.235 2.826,-3.295 3.497,-3.423C3.836,-3.48 4.116,-3.643 4.339,-3.914C4.561,-4.183 4.677,-4.498 4.689,-4.857C4.706,-5.388 4.55,-5.801 4.223,-6.096C3.895,-6.391 3.267,-6.554 2.339,-6.583L0.106,-6.655L0,-3.31ZM-5.418,6.313L-4.894,-10.139L3.579,-9.87C5.15,-9.819 6.346,-9.646 7.168,-9.35C7.99,-9.055 8.644,-8.534 9.129,-7.789C9.615,-7.042 9.841,-6.146 9.808,-5.099C9.779,-4.186 9.559,-3.405 9.149,-2.755C8.738,-2.105 8.186,-1.585 7.492,-1.196C7.049,-0.948 6.447,-0.749 5.686,-0.601C6.285,-0.379 6.719,-0.164 6.99,0.046C7.172,0.188 7.434,0.485 7.775,0.938C8.116,1.391 8.343,1.739 8.455,1.983L10.765,6.829L5.021,6.645L2.463,1.531C2.14,0.87 1.847,0.437 1.583,0.234C1.225,-0.032 0.814,-0.172 0.35,-0.187L-0.099,-0.202L-0.311,6.476L-5.418,6.313Z" style="fill:white;fill-rule:nonzero;"/>
                </g>
                <g transform="matrix(1,0,0,1,244.695,337.727)">
                    <path d="M0,-3.311L2.144,-3.243C2.375,-3.235 2.827,-3.295 3.497,-3.424C3.836,-3.48 4.117,-3.644 4.339,-3.914C4.561,-4.184 4.677,-4.498 4.689,-4.858C4.706,-5.389 4.551,-5.802 4.223,-6.097C3.895,-6.392 3.267,-6.554 2.34,-6.583L0.106,-6.655L0,-3.311ZM-5.417,6.313L-4.894,-10.139L3.579,-9.87C5.15,-9.82 6.347,-9.647 7.168,-9.351C7.99,-9.055 8.644,-8.535 9.13,-7.79C9.615,-7.043 9.841,-6.147 9.808,-5.099C9.779,-4.186 9.559,-3.406 9.149,-2.755C8.739,-2.106 8.186,-1.586 7.492,-1.196C7.05,-0.948 6.447,-0.75 5.686,-0.602C6.285,-0.38 6.719,-0.165 6.99,0.046C7.173,0.187 7.434,0.484 7.776,0.937C8.116,1.39 8.343,1.739 8.455,1.982L10.765,6.828L5.021,6.645L2.464,1.531C2.14,0.87 1.847,0.437 1.584,0.234C1.225,-0.033 0.814,-0.173 0.35,-0.188L-0.099,-0.203L-0.311,6.475L-5.417,6.313Z" style="fill:white;fill-rule:nonzero;"/>
                </g>
                <g transform="matrix(1,0,0,1,261.399,336.672)">
                    <path d="M0,-0.129C-0.053,1.532 0.218,2.735 0.812,3.48C1.406,4.225 2.234,4.615 3.297,4.649C4.389,4.684 5.246,4.355 5.867,3.664C6.488,2.973 6.828,1.706 6.886,-0.135C6.936,-1.683 6.659,-2.824 6.058,-3.559C5.456,-4.293 4.62,-4.678 3.55,-4.712C2.524,-4.744 1.69,-4.407 1.046,-3.701C0.402,-2.995 0.053,-1.805 0,-0.129M-5.083,-0.313C-4.997,-2.999 -4.183,-5.066 -2.639,-6.515C-1.095,-7.963 1.013,-8.646 3.684,-8.561C6.422,-8.474 8.508,-7.671 9.943,-6.154C11.377,-4.637 12.052,-2.554 11.968,0.095C11.907,2.017 11.533,3.584 10.847,4.794C10.16,6.004 9.195,6.932 7.95,7.578C6.705,8.224 5.17,8.517 3.344,8.459C1.489,8.4 -0.037,8.056 -1.234,7.426C-2.432,6.796 -3.387,5.83 -4.102,4.526C-4.817,3.223 -5.144,1.609 -5.083,-0.313" style="fill:white;fill-rule:nonzero;"/>
                </g>
                <g transform="matrix(1,0,0,1,281.325,338.892)">
                    <path d="M0,-3.31L2.143,-3.242C2.375,-3.235 2.826,-3.295 3.497,-3.423C3.836,-3.48 4.116,-3.643 4.339,-3.914C4.561,-4.183 4.677,-4.498 4.688,-4.857C4.706,-5.388 4.55,-5.801 4.222,-6.096C3.895,-6.391 3.267,-6.554 2.339,-6.583L0.106,-6.655L0,-3.31ZM-5.418,6.313L-4.894,-10.139L3.579,-9.87C5.15,-9.819 6.346,-9.647 7.168,-9.35C7.99,-9.055 8.644,-8.534 9.129,-7.789C9.615,-7.042 9.841,-6.146 9.808,-5.099C9.779,-4.186 9.559,-3.405 9.149,-2.755C8.738,-2.105 8.186,-1.585 7.492,-1.196C7.049,-0.948 6.447,-0.749 5.686,-0.602C6.285,-0.38 6.719,-0.164 6.99,0.046C7.172,0.188 7.434,0.485 7.775,0.938C8.116,1.391 8.343,1.739 8.455,1.983L10.765,6.829L5.021,6.645L2.463,1.531C2.14,0.87 1.846,0.437 1.583,0.234C1.225,-0.032 0.813,-0.172 0.35,-0.187L-0.099,-0.202L-0.312,6.476L-5.418,6.313Z" style="fill:white;fill-rule:nonzero;"/>
                </g>
                <g transform="matrix(1,0,0,1,283.999,357.011)">
                    <path d="M0,16.147C-0.356,16.147 -0.71,16.003 -0.97,15.72L-9.53,6.351L-18.767,14.791C-19.302,15.281 -20.132,15.242 -20.622,14.708L-29.182,5.338L-38.419,13.778C-38.954,14.267 -39.785,14.229 -40.273,13.695L-48.834,4.326L-58.071,12.766C-58.327,13.001 -58.673,13.125 -59.015,13.109C-59.363,13.093 -59.69,12.94 -59.925,12.683L-68.486,3.314L-77.723,11.753C-78.257,12.243 -79.088,12.204 -79.577,11.67C-80.066,11.135 -80.028,10.304 -79.493,9.816L-69.288,0.491C-68.753,0 -67.922,0.039 -67.433,0.574L-58.873,9.943L-49.636,1.502C-49.379,1.267 -49.035,1.146 -48.691,1.16C-48.344,1.175 -48.016,1.329 -47.781,1.585L-39.221,10.955L-29.984,2.515C-29.45,2.025 -28.619,2.063 -28.129,2.598L-19.569,11.967L-10.332,3.528C-9.797,3.037 -8.967,3.075 -8.478,3.611L0.969,13.949C1.458,14.484 1.42,15.315 0.885,15.803C0.633,16.034 0.316,16.147 0,16.147" style="fill:white;fill-rule:nonzero;"/>
                </g>
                <g transform="matrix(-0.90258,-0.430521,-0.430521,0.90258,121.695,380.26)">
                    <path d="M-18.473,29.309L-11.54,29.309L5.195,7.192L3.897,2.876L-18.473,29.309Z" style="fill:rgb(0,124,255);fill-rule:nonzero;"/>
                </g>
                <g transform="matrix(0.863443,-0.504446,-0.504446,-0.863443,134.162,412.253)">
                    <path d="M-8.481,2.159L1.137,2.159L6.281,25.077L0.804,35.519L-8.481,2.159Z" style="fill:rgb(0,124,255);fill-rule:nonzero;"/>
                </g>
                <g opacity="0.2">
                    <g transform="matrix(0.863443,-0.504446,-0.504446,-0.863443,134.162,412.253)">
                        <path d="M-8.481,2.159L1.137,2.159L6.281,25.077L0.804,35.519L-8.481,2.159Z" style="fill-rule:nonzero;"/>
                    </g>
                </g>
                <g transform="matrix(1,0,0,1,261.949,390.139)">
                    <path d="M0,29.466C-0.236,29.466 -0.467,29.462 -0.691,29.456C-3.452,29.38 -5.628,27.081 -5.552,24.32C-5.477,21.562 -3.196,19.392 -0.417,19.46C7.286,19.712 23.589,14.98 32.902,5.94C33.478,5.381 34.179,4.969 34.948,4.738C50.736,0 56.612,9.572 56.854,9.983L48.247,15.072C48.247,15.072 48.28,15.142 48.362,15.255C48.267,15.123 46.031,12.216 38.911,14.015C27.224,24.683 9.284,29.466 0,29.466" style="fill:rgb(26,46,53);fill-rule:nonzero;"/>
                </g>
                <g transform="matrix(-0.998023,-0.0628525,-0.0628525,0.998023,247.678,391.096)">
                    <path d="M-15.9,34.224L2.349,34.224L5.894,0.804L-18.592,0.178L-15.9,34.224Z" style="fill:rgb(0,124,255);fill-rule:nonzero;"/>
                </g>
                <g transform="matrix(0.708853,-0.705356,-0.705356,-0.708853,274.322,423.762)">
                    <path d="M-10.92,7.354L-4.914,7.354L11.724,20.334L16.349,27.915L-10.92,7.354Z" style="fill:rgb(0,124,255);fill-rule:nonzero;"/>
                </g>
                <g opacity="0.2">
                    <g transform="matrix(0.708853,-0.705356,-0.705356,-0.708853,274.322,423.762)">
                        <path d="M-10.92,7.354L-4.914,7.354L11.724,20.334L16.349,27.915L-10.92,7.354Z" style="fill-rule:nonzero;"/>
                    </g>
                </g>
                <g transform="matrix(1,0,0,1,366.91,323.582)">
                    <path d="M0,89.955C-0.632,89.955 -1.27,89.756 -1.813,89.344C-12.208,81.443 -26.258,67.418 -31.65,53.887C-31.729,53.689 -31.786,53.483 -31.821,53.273C-34.45,37.641 -36.962,4.732 -37.068,3.339C-37.193,1.687 -35.956,0.246 -34.304,0.121C-32.656,0 -31.21,1.233 -31.085,2.886C-31.06,3.222 -28.523,36.452 -25.958,51.959C-20.58,65.115 -6,78.625 1.818,84.566C3.137,85.569 3.394,87.451 2.391,88.77C1.801,89.547 0.906,89.955 0,89.955" style="fill:rgb(26,46,53);fill-rule:nonzero;"/>
                </g>
                <g transform="matrix(1,0,0,1,380.778,406.096)">
                    <path d="M0,8.957C-2.319,8.957 -4.949,7.905 -7.814,5.832C-9.157,4.86 -9.458,2.985 -8.486,1.643C-7.514,0.301 -5.639,0 -4.297,0.971C-1.82,2.764 -0.467,2.957 0,2.957C1.657,2.957 3,4.3 3,5.957C3,7.614 1.657,8.957 0,8.957" style="fill:rgb(26,46,53);fill-rule:nonzero;"/>
                </g>
                <g transform="matrix(1,0,0,1,373.804,412.875)">
                    <path d="M0,-1.032C3.21,-10.568 16.37,-8.683 20.902,-7.267C25.433,-5.851 29.517,-4.07 31.971,-2.465C34.426,-0.86 34.465,1.821 31.192,3.352C27.156,5.239 17.031,3.564 17.031,3.564C22.272,5.859 17.021,9.536 7.826,5.924C4.833,4.748 -1.133,2.461 0,-1.032" style="fill:rgb(0,124,255);fill-rule:nonzero;"/>
                </g>
                <g transform="matrix(0.158467,-0.987364,-0.987364,-0.158467,335.728,321.049)">
                    <path d="M-8.889,-7.638C-17.077,-7.746 -24.039,-2.069 -24.112,3.446C-24.185,8.962 -17.076,10.333 -8.889,10.441C-0.7,10.549 5.467,9.353 5.539,3.837C5.613,-1.678 -0.701,-7.53 -8.889,-7.638" style="fill:rgb(26,46,53);fill-rule:nonzero;"/>
                </g>
                <g transform="matrix(0,-1,-1,0,209.875,297.055)">
                    <path d="M-0.82,-0.82C-1.272,-0.82 -1.639,-0.453 -1.639,-0C-1.639,0.453 -1.272,0.82 -0.82,0.82C-0.368,0.82 -0,0.453 -0,-0C-0,-0.453 -0.368,-0.82 -0.82,-0.82" style="fill:rgb(26,46,53);fill-rule:nonzero;"/>
                </g>
                <g transform="matrix(0,-1,-1,0,217.388,302.958)">
                    <path d="M-0.819,-0.82C-1.272,-0.82 -1.639,-0.453 -1.639,-0.001C-1.639,0.452 -1.272,0.819 -0.819,0.819C-0.367,0.819 0,0.452 0,-0.001C0,-0.453 -0.367,-0.82 -0.819,-0.82" style="fill:rgb(26,46,53);fill-rule:nonzero;"/>
                </g>
                <g transform="matrix(0,-1,-1,0,218.305,399.863)">
                    <path d="M-0.82,-0.82C-1.273,-0.82 -1.639,-0.453 -1.639,-0C-1.639,0.453 -1.273,0.82 -0.82,0.82C-0.368,0.82 -0,0.453 -0,-0C-0,-0.453 -0.368,-0.82 -0.82,-0.82" style="fill:rgb(26,46,53);fill-rule:nonzero;"/>
                </g>
                <g transform="matrix(0,-1,-1,0,225.82,405.766)">
                    <path d="M-0.82,-0.819C-1.272,-0.819 -1.639,-0.452 -1.639,0.001C-1.639,0.453 -1.272,0.82 -0.82,0.82C-0.367,0.82 0,0.453 0,0.001C0,-0.452 -0.367,-0.819 -0.82,-0.819" style="fill:rgb(26,46,53);fill-rule:nonzero;"/>
                </g>
                <g transform="matrix(1,0,0,1,93.5078,415.311)">
                    <path d="M0,-8.91L-0.002,-8.91C-0.004,-8.909 -0.377,-8.72 -0.522,-7.05C-0.668,-5.367 -0.363,-4.226 0.412,-3.565C0.587,-3.415 0.788,-3.289 1.011,-3.186C1.293,-3.499 1.487,-3.849 1.554,-4.215C1.822,-5.664 1.132,-7.786 0.358,-8.644C0.157,-8.868 0.028,-8.91 0,-8.91M-6.291,-8.042C-6.297,-7.666 -6.263,-7.034 -6.114,-5.983C-5.911,-4.556 -5.384,-3.459 -4.595,-2.761C-4.829,-4.768 -5.72,-7.094 -6.291,-8.042M-11.862,-7.17C-11.92,-7.016 -12.025,-6.511 -11.778,-5.126C-11.449,-3.286 -10.258,-2.063 -8.938,-1.418C-8.945,-1.631 -8.984,-1.867 -9.055,-2.126C-9.84,-4.984 -11.333,-6.954 -11.862,-7.17M-10.998,1.108C-13.377,1.108 -16.595,-0.335 -18.331,-2.842C-18.488,-3.068 -18.432,-3.38 -18.205,-3.537C-17.978,-3.695 -17.667,-3.638 -17.509,-3.41C-15.643,-0.716 -11.53,0.721 -9.704,-0.13C-9.512,-0.22 -9.356,-0.333 -9.236,-0.469C-10.868,-1.223 -12.36,-2.699 -12.762,-4.95C-12.989,-6.218 -13.169,-7.931 -12.123,-8.167C-10.689,-8.489 -8.813,-5.02 -8.091,-2.391C-7.957,-1.905 -7.915,-1.455 -7.96,-1.049C-7.328,-0.876 -6.707,-0.831 -6.174,-0.908C-5.741,-0.971 -5.125,-1.149 -4.799,-1.653C-6.014,-2.474 -6.832,-3.922 -7.104,-5.843C-7.492,-8.577 -7.201,-9.054 -6.898,-9.287C-6.701,-9.438 -6.451,-9.467 -6.21,-9.365C-5.141,-8.91 -3.845,-5.031 -3.597,-2.836C-3.57,-2.594 -3.57,-2.362 -3.595,-2.142C-3.186,-1.979 -2.734,-1.89 -2.246,-1.881C-1.379,-1.831 -0.522,-2.106 0.164,-2.51C0.022,-2.598 -0.112,-2.697 -0.238,-2.805C-1.276,-3.691 -1.694,-5.108 -1.519,-7.136C-1.383,-8.703 -1.026,-9.559 -0.396,-9.829C-0.175,-9.927 0.275,-10.018 0.812,-9.59C1.892,-8.726 2.9,-5.992 2.538,-4.033C2.462,-3.628 2.288,-3.239 2.035,-2.882C3.87,-2.565 6.452,-3.081 8.679,-3.631C8.946,-3.696 9.218,-3.534 9.284,-3.265C9.351,-2.997 9.187,-2.726 8.919,-2.66C6.209,-1.99 3.292,-1.445 1.231,-2.043C0.315,-1.314 -0.974,-0.872 -2.267,-0.881C-2.856,-0.892 -3.405,-0.998 -3.906,-1.188C-4.3,-0.517 -5.033,-0.063 -6.03,0.082C-6.694,0.181 -7.476,0.117 -8.268,-0.109C-8.493,0.266 -8.833,0.567 -9.281,0.777C-9.759,0.999 -10.347,1.107 -10.998,1.108" style="fill:rgb(26,46,53);fill-rule:nonzero;"/>
                </g>
                <g transform="matrix(1,0,0,1,228.873,414.578)">
                    <path d="M0,9.399L2.71,4.699L0,0L-2.901,0L-1.262,4.7L-2.901,9.399L0,9.399Z" style="fill:rgb(26,46,53);fill-rule:nonzero;"/>
                </g>
                <g transform="matrix(1,0,0,1,226.163,416.963)">
                    <path d="M0,4.764C-1.35,4.764 -2.45,3.664 -2.45,2.314C-2.45,0.964 -1.35,-0.126 0,-0.126L-4.607,-1.048L-5.83,2.673L-3.774,5.812L0,4.764Z" style="fill:rgb(26,46,53);fill-rule:nonzero;"/>
                </g>
                <g transform="matrix(1,0,0,1,223.847,416.828)">
                    <path d="M0,4.899C-1.35,4.899 -2.45,3.799 -2.45,2.449C-2.45,1.099 -1.35,0.009 0,0.009C1.35,0.009 2.44,1.099 2.44,2.449C2.44,3.799 1.35,4.899 0,4.899M2.71,-2.25L-2.72,-2.25L-5.43,2.449L-2.72,7.149L2.71,7.149L5.42,2.449L2.71,-2.25Z" style="fill:rgb(0,124,255);fill-rule:nonzero;"/>
                </g>
                <g transform="matrix(1,0,0,1,417.889,407.285)">
                    <path d="M0,6.98L-2.013,3.49L0,0L2.155,0L0.937,3.49L2.155,6.98L0,6.98Z" style="fill:rgb(0,124,255);fill-rule:nonzero;"/>
                </g>
                <g transform="matrix(1,0,0,1,419.902,409.056)">
                    <path d="M0,3.538C1.003,3.538 1.82,2.722 1.82,1.719C1.82,0.717 1.003,-0.094 0,-0.094L3.422,-0.778L4.33,1.985L2.803,4.316L0,3.538Z" style="fill:rgb(0,124,255);fill-rule:nonzero;"/>
                </g>
                <g transform="matrix(1,0,0,1,421.623,408.955)">
                    <path d="M0,3.639C1.002,3.639 1.82,2.823 1.82,1.82C1.82,0.818 1.002,0.007 0,0.007C-1.002,0.007 -1.812,0.818 -1.812,1.82C-1.812,2.823 -1.002,3.639 0,3.639M-2.013,-1.671L2.02,-1.671L4.033,1.82L2.02,5.31L-2.013,5.31L-4.025,1.82L-2.013,-1.671Z" style="fill:rgb(26,46,53);fill-rule:nonzero;"/>
                </g>
                <g transform="matrix(1,0,0,1,342.948,414.62)">
                    <path d="M0,4.278L4.518,4.278C5.695,4.278 6.657,3.315 6.657,2.138C6.657,0.963 5.695,0 4.518,0L0,0C-1.177,0 -2.139,0.963 -2.139,2.138C-2.139,3.315 -1.177,4.278 0,4.278" style="fill:rgb(26,46,53);fill-rule:nonzero;"/>
                </g>
                <g transform="matrix(-0.426447,0.904513,0.904513,0.426447,343.182,413.93)">
                    <path d="M4.022,-6.342C1.406,-6.342 -0.715,-4.352 -0.715,-1.896C-0.714,0.56 1.406,2.55 4.022,2.55C6.638,2.549 8.759,0.56 8.758,-1.896C8.758,-4.352 6.638,-6.342 4.022,-6.342" style="fill:rgb(0,124,255);fill-rule:nonzero;"/>
                </g>
                <g transform="matrix(0.904272,0.426957,0.426957,-0.904272,335.418,419.442)">
                    <rect x="2.091" y="-0.775" width="1.364" height="10.103" style="fill:rgb(26,46,53);"/>
                </g>
            </g>
        </g>
    </g>
    <g id="Shadow">
    </g>
    <g id="Oops-" serif:id="Oops!">
    </g>
    <g id="_404" serif:id="404">
    </g>
    <g id="Character">
    </g>
    <g id="Robot-Parts" serif:id="Robot Parts">
    </g>
</svg>
